<svg width="54" height="54" viewBox="0 0 54 54" fill="none" xmlns="http://www.w3.org/2000/svg">
    <path d="M15.822 36.476c3.133 0 5.504-1.136 7.144-2.74 1.672 1.7 4.179 2.745 7.247 2.745 3.783 0 6.855-1.498 9.218-3.822l3.034 3.308h6.414l-6.578-7.117a22.327 22.327 0 0 0 2.759-8.666h-4.727A18.489 18.489 0 0 1 39.23 25.5a14.067 14.067 0 0 1-2.442 4.254c-1.536 1.772-3.504 2.915-5.751 2.915-2.652 0-4.472-1.136-5.163-3.036H20.82c-.827 1.97-2.756 2.955-5.198 2.955-2.68 0-5.438-1.93-5.751-5.87H25.68c.404-1.938 1.938-3.392 4.417-4.33 0 0 2.293-.846 4.57-1.819 3.151-1.456 5.514-4.056 5.514-7.367 0-4.687-4.017-6.3-7.641-6.3-4.57 0-7.953 2.402-7.953 6.224 0 2.244 1.223 4.371 3.034 6.498a13.86 13.86 0 0 0-2.727 1.311c-1.459-4.024-4.817-6.632-9.385-6.632-6.028 0-10.4 4.53-10.4 10.906s3.9 11.266 10.714 11.266h-.001zm16.751-26.015v-.016c1.732 0 3.15.984 3.15 2.915 0 1.772-1.063 3.506-3.466 4.57l-.038-.041c-1.42-1.498-2.759-3.229-2.759-4.883s1.457-2.545 3.113-2.545zm-17.07 7.512v-.009c2.757 0 5.28 2.011 5.398 5.32H9.87c.393-4.009 3.427-5.311 5.633-5.311zM7.367 42.826c-1.307 0-2.255.976-2.255 2.374 0 1.319.853 2.449 2.33 2.449a2.078 2.078 0 0 0 2.085-1.492h-.999c-.18.429-.599.644-1.128.644-.58 0-1.179-.42-1.248-1.278h3.42c.086-1.549-.806-2.698-2.204-2.698zm-1.211 1.953a1.2 1.2 0 0 1 1.223-1.165c.643 0 1.165.521 1.165 1.165H6.156zM11.363 41.712h-1.018v1.216h-.683v.739h.683v2.663c0 .941.198 1.207 1.181 1.207h.753v-.778h-.368c-.436 0-.548-.117-.548-.583v-2.51h.932v-.738h-.932v-1.216zM13.913 42.928h-1.019v4.61h1.019v-4.61zM13.913 41.328h-1.019v1.027h1.019v-1.027zM16.886 44.788l-.65-.129c-.382-.082-.616-.237-.616-.547 0-.31.41-.506.856-.506.512 0 .896.163 1.008.583h.93c-.189-.925-1.009-1.363-1.906-1.363-.99 0-1.864.499-1.864 1.337 0 .84.62 1.191 1.398 1.345l.7.137c.452.084.794.268.794.634s-.403.599-.932.599c-.599 0-.941-.28-1.034-.746h-.993c.112.874.864 1.517 1.992 1.517 1.044 0 1.948-.531 1.948-1.491 0-.904-.699-1.19-1.63-1.37h-.001zM23.044 44.771c.026-1.472-.827-1.978-1.939-1.978-1.111 0-1.89.641-1.957 1.585h1c.035-.557.429-.832.932-.832.503 0 .957.24.957 1.027v.086c-1.684.173-3.094.462-3.103 1.61 0 .84.7 1.38 1.7 1.38.677 0 1.222-.24 1.513-.736.011.21.04.418.086.624h.932a8.04 8.04 0 0 1-.137-1.575c0-.42.016-.958.016-1.19zm-.981.951c0 .778-.445 1.165-1.198 1.165-.511 0-.844-.239-.845-.64 0-.535.59-.74 2.043-.877v.352zM24.94 41.328h-1.027v6.21h1.028v-6.21zM29.692 44.771c.026-1.472-.827-1.978-1.939-1.978-1.111 0-1.89.641-1.957 1.585h1c.034-.557.428-.832.931-.832.503 0 .958.24.958 1.027v.086c-1.685.173-3.094.462-3.094 1.608 0 .839.701 1.38 1.7 1.38.679 0 1.224-.234 1.504-.734.012.21.04.418.086.624h.932a8.047 8.047 0 0 1-.138-1.575c0-.42.016-.958.016-1.19zm-.981.951c0 .778-.445 1.165-1.198 1.165-.511 0-.844-.239-.846-.64.002-.535.592-.74 2.044-.877v.352zM31.698 41.712h-1v1.216h-.684v.739h.685v2.663c0 .941.195 1.207 1.179 1.207h.752v-.778h-.384c-.436 0-.548-.117-.548-.583v-2.51h.932v-.738h-.932v-1.216zM39.047 44.771c.026-1.472-.832-1.978-1.94-1.978-1.11 0-1.888.641-1.958 1.585h1.002c.035-.557.429-.832.932-.832.503 0 .957.24.957 1.027v.086c-1.682.173-3.094.462-3.106 1.61 0 .84.702 1.38 1.701 1.38.674 0 1.221-.24 1.512-.736.011.21.04.418.087.624h.932a8.253 8.253 0 0 1-.135-1.575c0-.42.016-.958.016-1.19zm-.981.951c0 .778-.445 1.165-1.198 1.165-.511 0-.844-.239-.846-.64.002-.535.592-.74 2.044-.877v.352zM42.33 42.826a1.497 1.497 0 0 0-1.389.745v-.643h-1.016v4.61h1.016v-2.45c0-.832.291-1.43 1.07-1.43.778 0 .872.608.872 1.232v2.647h1.01v-2.894c0-1.097-.451-1.817-1.563-1.817zM47.876 43.546a1.524 1.524 0 0 0-1.368-.72c-1.086 0-1.999.923-1.999 2.407s.913 2.416 2 2.416a1.523 1.523 0 0 0 1.367-.72v.609h1.016v-6.21h-1.016v2.218zm-1.144 3.271c-.679 0-1.166-.608-1.166-1.584 0-.977.5-1.575 1.166-1.575.666 0 1.188.512 1.188 1.575 0 1.062-.51 1.584-1.188 1.584z" fill="#F20519"/>
</svg>
